<svg width="9" height="10" viewBox="0 0 9 10" fill="none" xmlns="http://www.w3.org/2000/svg">
<path d="M8.09626 8.93949C8.20711 9.05887 8.26254 9.19105 8.26254 9.33602C8.26254 9.49804 8.19859 9.64301 8.07067 9.77093C7.94276 9.89031 7.79779 9.95 7.63577 9.95C7.45669 9.95 7.30319 9.87326 7.17528 9.71976L4.39956 6.22773L1.61105 9.71976C1.48314 9.87326 1.33391 9.95 1.16336 9.95C1.00133 9.95 0.856363 9.89031 0.72845 9.77093C0.600537 9.64301 0.53658 9.49804 0.53658 9.33602C0.53658 9.19958 0.587745 9.0674 0.690076 8.93949L3.63208 5.29396L0.830781 1.81472C0.72845 1.70386 0.677285 1.57168 0.677285 1.41819C0.677285 1.25616 0.736978 1.11546 0.856363 0.996074C0.984277 0.868161 1.12924 0.804204 1.29127 0.804204C1.47035 0.804204 1.62384 0.880952 1.75176 1.03445L4.39956 4.37298L7.04737 1.03445C7.16675 0.880952 7.32025 0.804204 7.50785 0.804204C7.66988 0.804204 7.81485 0.868161 7.94276 0.996074C8.07067 1.11546 8.13463 1.25616 8.13463 1.41819C8.13463 1.56316 8.0792 1.69533 7.96834 1.81472L5.16704 5.29396L8.09626 8.93949Z" fill="#868E96"/>
</svg>
